<svg width="313" height="136" fill="none" xmlns="http://www.w3.org/2000/svg"><path d="M132 87.467V48.533h12.36c2.642 0 4.937.516 6.884 1.547 1.981 1.031 3.511 2.489 4.589 4.373 1.113 1.85 1.669 4.036 1.669 6.56v13.92c0 2.49-.556 4.676-1.669 6.56-1.078 1.885-2.608 3.36-4.589 4.427-1.947 1.031-4.242 1.547-6.884 1.547H132ZM139.823 80h4.537c1.599 0 2.885-.462 3.859-1.387.973-.924 1.46-2.15 1.46-3.68v-13.92c0-1.493-.487-2.702-1.46-3.626-.974-.925-2.26-1.387-3.859-1.387h-4.537v24ZM176.869 88c-2.538 0-4.745-.48-6.623-1.44-1.877-.996-3.338-2.364-4.381-4.107-1.008-1.777-1.512-3.84-1.512-6.186V59.733c0-2.346.504-4.39 1.512-6.133 1.043-1.778 2.504-3.147 4.381-4.107 1.878-.995 4.085-1.493 6.623-1.493 2.573 0 4.781.498 6.623 1.493 1.878.96 3.321 2.33 4.329 4.107 1.043 1.742 1.564 3.787 1.564 6.133v16.534c0 2.346-.521 4.409-1.564 6.186-1.008 1.743-2.451 3.111-4.329 4.107-1.842.96-4.05 1.44-6.623 1.44Zm0-6.933c3.129 0 4.694-1.6 4.694-4.8V59.733c0-3.2-1.565-4.8-4.694-4.8s-4.693 1.6-4.693 4.8v16.534c0 3.2 1.564 4.8 4.693 4.8ZM197.175 87.467V48.533h12.986c2.677 0 5.007.516 6.988 1.547 2.017 1.031 3.564 2.471 4.642 4.32 1.112 1.849 1.668 4.018 1.668 6.507 0 2.453-.556 4.622-1.668 6.506-1.113 1.85-2.66 3.29-4.642 4.32-1.981 1.031-4.311 1.547-6.988 1.547h-5.163v14.187h-7.823Zm7.823-21.387h5.163c1.669 0 2.99-.462 3.963-1.387 1.009-.96 1.513-2.222 1.513-3.786 0-1.565-.504-2.81-1.513-3.734-.973-.96-2.294-1.44-3.963-1.44h-5.163V66.08ZM230.415 87.467V48.533h23.468v6.827h-15.802v8.747h13.977v6.826h-13.977v9.707h15.802v6.827h-23.468ZM259.796 87.467l10.221-20.107-9.544-18.827h8.605l3.964 8.534c.382.782.695 1.493.939 2.133.278.64.452 1.102.521 1.387.07-.285.226-.747.469-1.387.244-.64.539-1.351.887-2.133l4.068-8.534h8.396l-9.544 18.827L289 87.467h-8.605l-4.589-9.6a84.832 84.832 0 0 1-.939-2.187c-.278-.676-.487-1.191-.626-1.547a29.26 29.26 0 0 1-.521 1.547 22.013 22.013 0 0 1-.939 2.187l-4.589 9.6h-8.396Z" fill="#fff"/><path fill-rule="evenodd" clip-rule="evenodd" d="M33.943 51.535 51.791 24 25.184 50.322c-2.213 2.19-1.172 5.931 1.863 6.691l14.103 3.532c-1.26 1.958-2.685 4.427-3.794 7.045-1.015 2.397-1.862 5.142-1.946 7.861-.085 2.784.636 5.767 3.016 8.121 3.576 3.538 6.172 4.772 8.246 5.757l.454.217c.965.463 1.678.844 2.434 1.442.763.603 1.69 1.526 2.881 3.146.212.288.436.596.673.921 2.596 3.564 6.67 9.158 11.929 12.87 2.934 2.072 6.416 3.7 10.397 4.019 4.034.322 8.246-.726 12.532-3.457 4.106-2.616 6.812-5.531 8.085-8.925 1.282-3.418.902-6.768-.03-9.807-.854-2.783-2.28-5.62-3.61-8.27l-.25-.5c-1.455-2.901-2.827-5.706-3.74-8.643-1.784-5.733-.574-8.216.186-9.2.446-.577.96-.933 1.36-1.143a3.406 3.406 0 0 1 .49-.213l.084-.02.143-.046h.001l.63-.205a1704.036 1704.036 0 0 0 6.731-2.202c1.847-.608 3.712-1.229 5.136-1.714.709-.242 1.326-.456 1.783-.621.223-.081.437-.16.614-.231a6.75 6.75 0 0 0 .319-.137 4 4 0 0 0 .278-.141l.005-.003c.055-.03.42-.23.779-.584 1.433-1.418.974-3.157.927-3.335l-.002-.009a3.572 3.572 0 0 0-.33-.828 4.07 4.07 0 0 0-.318-.487 7.867 7.867 0 0 0-.368-.445c-.228-.26-.542-.599-.905-.983-.436-.46-8.896-8.938-16.004-16.061-4.92-4.932-9.194-9.214-9.705-9.734.06.062 4.612 7.146 9.118 14.16 4.415 6.87 8.785 13.673 8.842 13.731a1599.75 1599.75 0 0 1-9.103 2.988l-.532.173a8.301 8.301 0 0 0-.54.17c-.367.13-.847.325-1.39.61a11.228 11.228 0 0 0-3.652 3.067c-2.518 3.258-3.578 8.258-1.326 15.498 1.104 3.549 2.726 6.825 4.163 9.692l.141.28c1.43 2.853 2.611 5.207 3.289 7.415.675 2.2.72 3.87.166 5.348-.563 1.502-1.954 3.359-5.288 5.482-3.152 2.009-5.84 2.551-8.14 2.367-2.35-.188-4.632-1.164-6.864-2.741-4.257-3.006-7.672-7.675-10.364-11.355l-.002-.004-.628-.856c-1.469-1.998-2.817-3.414-4.183-4.494-1.374-1.086-2.645-1.734-3.758-2.269l-.479-.228c-1.827-.867-3.582-1.7-6.312-4.4-.63-.623-.996-1.518-.951-2.97.047-1.517.55-3.365 1.4-5.375 1.697-4.006 4.389-7.767 5.464-9.189 1.755-2.32.505-5.584-2.249-6.274l-13.14-3.291Zm29.764 28.557s-5.441 0-9.069-3.302c-3.627-3.302 0-9.906 0-9.906s1.059.66 5.064 5.283 4.005 7.925 4.005 7.925Z" fill="url(#a)"/><defs><linearGradient id="a" x1="66.139" y1="63.64" x2="66.003" y2="112" gradientUnits="userSpaceOnUse"><stop stop-color="#22E1FF"/><stop offset="1" stop-color="#002EFF"/></linearGradient></defs></svg>